<svg width="64" height="64" viewBox="0 0 64 64" fill="none" xmlns="http://www.w3.org/2000/svg">
<path d="M57 0H7C3.13401 0 0 3.13401 0 7V57C0 60.866 3.13401 64 7 64H57C60.866 64 64 60.866 64 57V7C64 3.13401 60.866 0 57 0Z" fill="#F0F7FF"/>
<path d="M38.0939 18.0601C38.0939 17.5801 38.4839 17.1899 38.9649 17.1899H39.7839C39.6199 15.7199 39.0409 14.3302 38.1159 13.1802L37.5399 13.75C37.2059 14.1 36.6549 14.11 36.3089 13.77C35.9629 13.44 35.9529 12.89 36.2869 12.54C36.2939 12.54 36.3009 12.53 36.3089 12.52L36.8839 11.9502C35.7309 11.0202 34.3379 10.4398 32.8689 10.2798V11.1001C32.8689 11.5801 32.4789 11.9702 31.9979 11.9702C31.5169 11.9702 31.127 11.5801 31.127 11.1001V10.2798C29.657 10.4398 28.2639 11.0202 27.1109 11.9502L27.687 12.52C28.021 12.87 28.0109 13.42 27.6649 13.75C27.3279 14.08 26.7929 14.08 26.4549 13.75L25.8799 13.1802C24.9539 14.3302 24.3749 15.7199 24.2109 17.1899H25.0299C25.5109 17.1899 25.9009 17.5801 25.9009 18.0601C25.9009 18.5501 25.5109 18.9399 25.0299 18.9399H24.2109C24.3749 20.4099 24.9539 21.8002 25.8799 22.9502L26.4549 22.3799C26.8009 22.0399 27.353 22.0499 27.687 22.3999C28.013 22.7399 28.013 23.2699 27.687 23.6099L27.1109 24.1802C28.2639 25.1102 29.657 25.6901 31.127 25.8501V25.0298C31.127 24.5498 31.5169 24.1602 31.9979 24.1602C32.4789 24.1602 32.8689 24.5498 32.8689 25.0298V25.8501C34.3379 25.6901 35.7309 25.1102 36.8839 24.1802L36.3089 23.6099C35.9629 23.2699 35.9529 22.7199 36.2869 22.3799C36.6209 22.0299 37.173 22.0201 37.519 22.3501C37.526 22.3601 37.5329 22.3699 37.5399 22.3799L38.1159 22.9502C39.0409 21.8002 39.6199 20.4099 39.7839 18.9399H38.9649C38.4839 18.9399 38.0939 18.5501 38.0939 18.0601ZM35.4809 18.0601C35.4809 18.5501 35.0909 18.9399 34.6099 18.9399H31.9979C31.5169 18.9399 31.127 18.5501 31.127 18.0601V14.5801C31.127 14.1001 31.5169 13.71 31.9979 13.71C32.4789 13.71 32.8689 14.1001 32.8689 14.5801V17.1899H34.6099C35.0909 17.1899 35.4809 17.5801 35.4809 18.0601Z" fill="#0E5BCA"/>
<path d="M32.001 5C24.786 5 18.938 10.8501 18.938 18.0601C18.938 25.2801 24.786 31.1299 32.001 31.1299C39.216 31.1299 45.064 25.2801 45.064 18.0601C45.056 10.8501 39.212 5.01 32.001 5ZM32.001 27.6499C26.71 27.6499 22.421 23.3601 22.421 18.0601C22.421 12.7701 26.71 8.47998 32.001 8.47998C37.292 8.47998 41.581 12.7701 41.581 18.0601C41.575 23.3501 37.289 27.6399 32.001 27.6499Z" fill="#0E5BCA"/>
<path d="M26.774 59H11.097C10.617 59 10.2271 58.6099 10.2271 58.1299V49.4199C10.2271 48.9399 10.617 48.5498 11.097 48.5498H26.774C27.255 48.5498 27.6441 48.9399 27.6441 49.4199V58.1299C27.6441 58.6099 27.255 59 26.774 59Z" fill="#0E5BCA"/>
<path d="M12.837 23.46C13.259 23.35 13.694 23.29 14.132 23.29C14.895 23.29 15.646 23.4798 16.321 23.8398V17.1899C16.321 15.2699 14.761 13.71 12.837 13.71C12.776 13.71 12.717 13.72 12.656 13.73C12.775 14.15 12.836 14.58 12.837 15.02V23.46Z" fill="#0E5BCA"/>
<path d="M25.904 39.5C25.904 36.96 24.895 34.53 23.099 32.73L16.289 25.9199C15.111 24.7199 13.181 24.6999 11.979 25.8799C10.777 27.0599 10.758 28.9899 11.936 30.1899C11.951 30.1999 11.965 30.22 11.979 30.23L18.685 36.9399C19.019 37.2799 19.01 37.8399 18.664 38.1699C18.326 38.4999 17.791 38.4999 17.454 38.1699L10.748 31.46C8.877 29.59 8.877 26.5599 10.748 24.6899C10.859 24.5899 10.975 24.4899 11.096 24.3999V15.02C11.096 13.33 9.732 11.9702 8.048 11.9702C6.365 11.9702 5 13.33 5 15.02V30.7798C5 32.8798 5.581 34.93 6.679 36.71L11.97 45.3101V46.8101H25.904V39.5Z" fill="#0E5BCA"/>
<path d="M36.355 58.1299V49.4199C36.355 48.9399 36.745 48.5498 37.226 48.5498H52.902C53.383 48.5498 53.773 48.9399 53.773 49.4199V58.1299C53.773 58.6099 53.383 59 52.902 59H37.226C36.745 59 36.355 58.6099 36.355 58.1299Z" fill="#0E5BCA"/>
<path d="M51.159 23.46C50.738 23.35 50.303 23.29 49.865 23.29C49.102 23.29 48.351 23.4798 47.676 23.8398V17.1899C47.676 15.2699 49.235 13.71 51.159 13.71C51.22 13.71 51.28 13.72 51.341 13.73C51.222 14.15 51.161 14.58 51.159 15.02V23.46Z" fill="#0E5BCA"/>
<path d="M38.098 39.5C38.098 36.96 39.107 34.53 40.903 32.73L47.712 25.9199C48.891 24.7199 50.821 24.6999 52.023 25.8799C53.225 27.0599 53.244 28.9899 52.065 30.1899C52.051 30.1999 52.037 30.22 52.022 30.23L45.317 36.9399C44.982 37.2799 44.992 37.8399 45.338 38.1699C45.675 38.4999 46.21 38.4999 46.548 38.1699L53.254 31.46C55.124 29.59 55.124 26.5599 53.254 24.6899C53.143 24.5899 53.026 24.4899 52.905 24.3999V15.02C52.905 13.33 54.27 11.9702 55.954 11.9702C57.637 11.9702 59.002 13.33 59.002 15.02V30.7798C59.002 32.8798 58.421 34.93 57.323 36.71L52.032 45.3101V46.8101H38.098V39.5Z" fill="#0E5BCA"/>
</svg>
