<svg width="64" height="64" viewBox="0 0 64 64" fill="none" xmlns="http://www.w3.org/2000/svg">
<path d="M57 0H7C3.13401 0 0 3.13401 0 7V57C0 60.866 3.13401 64 7 64H57C60.866 64 64 60.866 64 57V7C64 3.13401 60.866 0 57 0Z" fill="#F0F7FF"/>
<path d="M44.786 21.6602L43.026 19.77H48.924C49.995 19.77 50.867 20.7099 50.867 21.8599V27.27H54.031V21.8599C54.031 18.8199 51.74 16.3501 48.924 16.3501H43.027L44.882 14.3599L42.65 11.9399L36.953 18.0601L42.553 24.0801L44.786 21.6602Z" fill="#0E5BCA"/>
<path d="M19.1281 46L20.8881 47.8901H14.9901C13.9191 47.8901 13.0471 46.9498 13.0471 45.7998V40.3901H9.88306V45.7998C9.88306 48.8398 12.1741 51.3101 14.9901 51.3101H20.8871L19.0321 53.2998L21.2641 55.7202L26.9611 49.6001L21.3611 43.5801L19.1281 46Z" fill="#0E5BCA"/>
<path d="M12.154 5H5V27.46H31.917V9.12012H16.106C16.032 6.83012 14.292 5 12.154 5ZM25.589 20.6299H28.753V24.04H25.589V20.6299Z" fill="#0E5BCA"/>
<path d="M51.845 36.54C49.708 36.54 47.967 38.3802 47.894 40.6602H32.082V59H58.999V36.54H51.845ZM38.406 55.5898H35.242V52.1699H38.406V55.5898Z" fill="#0E5BCA"/>
</svg>
