<svg width="64" height="64" viewBox="0 0 64 64" fill="none" xmlns="http://www.w3.org/2000/svg">
<path d="M57 0H7C3.13401 0 0 3.13401 0 7V57C0 60.866 3.13401 64 7 64H57C60.866 64 64 60.866 64 57V7C64 3.13401 60.866 0 57 0Z" fill="#F0F7FF"/>
<path d="M13.437 32.1101H6.582C5.709 32.1101 5 32.8099 5 33.6899V57.4199C5 58.2899 5.709 59 6.582 59H13.437C14.31 59 15.019 58.2899 15.019 57.4199V33.6899C15.019 32.8099 14.31 32.1101 13.437 32.1101Z" fill="#0E5BCA"/>
<path d="M58.524 34.2399C55.552 31.3399 50.702 31.6598 48.138 34.9498L44.76 39.2999C45.332 40.2499 45.661 41.3599 45.661 42.5499V44.5499C45.661 45.4199 44.952 46.1298 44.079 46.1298H33.954C33.056 46.1298 32.331 45.3799 32.374 44.4699C32.415 43.6199 33.148 42.9699 34 42.9699H42.497C42.497 42.5199 42.525 42.24 42.339 41.81C41.516 39.93 39.813 38.5398 37.787 38.1398C36.993 37.9798 36.689 38.0099 33.86 38.0099C32.628 38.0099 31.478 37.4599 30.707 36.4999C29.333 34.7799 27.284 33.7899 25.084 33.7899H20.842C19.922 33.7899 19.022 33.97 18.187 34.31L18.137 58.11C19.428 58.7 20.84 58.9999 22.256 58.9999H39.108C42.608 58.9999 45.796 57.2199 47.634 54.2399L58.766 36.2099C59.155 35.5799 59.055 34.7599 58.524 34.2399Z" fill="#0E5BCA"/>
<path d="M35.5849 33.6899C43.4939 33.6899 49.9289 27.2501 49.9289 19.3401C49.9289 11.4301 43.4939 5 35.5849 5C27.6769 5 21.2419 11.4301 21.2419 19.3401C21.2419 27.2501 27.6769 33.6899 35.5849 33.6899ZM31.3099 23.23C31.7879 22.5 32.7679 22.29 33.4989 22.77C34.3219 23.31 34.5689 23.3101 35.5849 23.3101C36.5959 23.2901 36.9979 22.5 37.0769 22.03C37.1479 21.61 37.0679 21.04 36.2849 20.77C34.9709 20.3 33.6239 19.77 32.6689 19.02C30.4879 17.31 31.1619 13.4099 34.0179 12.3799H34.019C34.123 11.6099 34.7839 11.01 35.5849 11.01C36.3529 11.01 36.9929 11.56 37.1369 12.28C37.1519 12.29 37.3959 12.3501 37.9099 12.5701C38.9139 13.0101 39.1829 14.3201 38.4399 15.1201C38.0049 15.5901 37.3279 15.76 36.7249 15.54C36.2129 15.36 35.5909 15.2101 35.1199 15.3501C34.6999 15.4801 34.5859 15.91 34.5609 16.04C34.5099 16.32 34.5839 16.5 34.6229 16.53C35.2199 17 36.33 17.43 37.338 17.78C39.405 18.51 40.5539 20.43 40.1969 22.55C39.9039 24.3 38.6659 25.6699 37.1629 26.1899C37.1119 27.0199 36.4259 27.6799 35.5849 27.6799C34.8069 27.6799 34.1609 27.1101 34.0299 26.3701C33.3329 26.2501 32.6939 26.0199 31.7679 25.4199C31.0369 24.9399 30.8309 23.96 31.3099 23.23Z" fill="#0E5BCA"/>
</svg>
