<svg width="64" height="64" viewBox="0 0 64 64" fill="none" xmlns="http://www.w3.org/2000/svg">
<path d="M57 0H7C3.13401 0 0 3.13401 0 7V57C0 60.866 3.13401 64 7 64H57C60.866 64 64 60.866 64 57V7C64 3.13401 60.866 0 57 0Z" fill="#F0F7FF"/>
<path d="M20.549 49.3398C20.065 49.8198 19.524 50.2301 18.929 50.5601C17.83 51.2001 16.582 51.5498 15.242 51.5498C13.901 51.5498 12.653 51.2001 11.555 50.5601C10.959 50.2301 10.419 49.8198 9.935 49.3398C6.974 51.0998 5 54.3598 5 58.0698C5 58.5898 5.41 59 5.931 59H24.552C25.074 59 25.483 58.5898 25.483 58.0698C25.483 54.3598 23.509 51.0998 20.549 49.3398Z" fill="#0E5BCA"/>
<path d="M15.243 49.6899C18.328 49.6899 20.829 47.1901 20.829 44.1001C20.829 41.0201 18.328 38.52 15.243 38.52C12.157 38.52 9.65601 41.0201 9.65601 44.1001C9.65601 47.1901 12.157 49.6899 15.243 49.6899Z" fill="#0E5BCA"/>
<path d="M48.762 49.6899C51.847 49.6899 54.348 47.1901 54.348 44.1001C54.348 41.0201 51.847 38.52 48.762 38.52C45.677 38.52 43.176 41.0201 43.176 44.1001C43.176 47.1901 45.677 49.6899 48.762 49.6899Z" fill="#0E5BCA"/>
<path d="M54.064 49.3398C53.58 49.8198 53.04 50.2301 52.444 50.5601C51.346 51.2001 50.098 51.5498 48.757 51.5498C47.417 51.5498 46.169 51.2001 45.07 50.5601C44.474 50.2301 43.934 49.8198 43.45 49.3398C40.489 51.0998 38.516 54.3598 38.516 58.0698C38.516 58.5898 38.925 59 39.447 59H58.068C58.589 59 58.999 58.5898 58.999 58.0698C58.999 54.3598 57.025 51.0998 54.064 49.3398Z" fill="#0E5BCA"/>
<path d="M43.969 15.3303C43.913 14.9803 43.652 14.68 43.317 14.59L42.032 14.2004C41.809 13.4504 41.511 12.7303 41.138 12.0603L41.771 10.8801C41.939 10.5701 41.92 10.1801 41.715 9.88008C41.045 8.97008 40.207 8.13008 39.239 7.38008C38.941 7.16008 38.55 7.14025 38.215 7.31025L37.042 7.96016C36.371 7.59016 35.645 7.29004 34.9 7.09004L34.528 5.77998C34.416 5.42998 34.118 5.17006 33.746 5.11006C32.591 4.96006 31.418 4.96006 30.245 5.11006C29.891 5.17006 29.574 5.42998 29.481 5.77998L29.109 7.09004C28.345 7.29004 27.638 7.59016 26.967 7.96016L25.776 7.31025C25.459 7.14025 25.068 7.16008 24.77 7.38008C23.82 8.09008 22.982 8.93008 22.275 9.88008C22.07 10.1601 22.033 10.5701 22.219 10.8801L22.871 12.0603C22.498 12.7503 22.2 13.4504 21.977 14.2004L20.692 14.59C20.338 14.68 20.096 14.9803 20.04 15.3303C19.835 16.5103 19.835 17.7003 20.04 18.8703C20.096 19.2303 20.338 19.5103 20.673 19.6203L21.977 20.01C22.2 20.75 22.498 21.4801 22.871 22.1501L22.219 23.32C22.033 23.66 22.07 24.0503 22.275 24.3303C23.001 25.3003 23.839 26.13 24.789 26.82C25.068 27.03 25.459 27.0501 25.776 26.8801L26.949 26.2502C27.638 26.6202 28.364 26.9203 29.109 27.1203L29.481 28.4201C29.574 28.7601 29.872 29.0203 30.245 29.0803C30.822 29.1703 31.418 29.2102 31.995 29.2102C32.591 29.2102 33.187 29.1703 33.764 29.0803C34.118 29.0203 34.416 28.7601 34.528 28.4201L34.9 27.1203C35.645 26.9203 36.371 26.6202 37.042 26.2502L38.233 26.8801C38.55 27.0501 38.941 27.03 39.22 26.8C40.207 26.1 41.026 25.2603 41.715 24.3303C41.92 24.0303 41.939 23.66 41.771 23.34L41.138 22.1501C41.511 21.4801 41.809 20.75 42.032 20.01L43.317 19.6203C43.671 19.5103 43.913 19.2103 43.969 18.8503C44.136 17.7003 44.136 16.5103 43.969 15.3303ZM31.995 21.76C29.425 21.76 27.34 19.6703 27.34 17.1003C27.34 14.5303 29.425 12.4504 31.995 12.4504C34.565 12.4504 36.65 14.5303 36.65 17.1003C36.65 19.6703 34.565 21.76 31.995 21.76Z" fill="#0E5BCA"/>
<path d="M37.3081 50.7401C33.8891 51.8101 30.1141 51.8101 26.6951 50.7401C26.2001 50.5901 25.6801 50.86 25.5281 51.35C25.3731 51.84 25.6461 52.3599 26.1351 52.5199C28.0261 53.1099 29.9991 53.4101 32.0011 53.4101C34.0041 53.4101 35.9771 53.1099 37.8681 52.5199C38.3571 52.3599 38.6301 51.84 38.4751 51.35C38.3241 50.86 37.8061 50.5901 37.3081 50.7401Z" fill="#0E5BCA"/>
<path d="M49.692 33.86C49.692 34.46 49.663 35.0501 49.604 35.6301C49.552 36.1401 49.925 36.6001 50.437 36.6501C50.468 36.6501 50.499 36.6603 50.532 36.6603C51.003 36.6603 51.408 36.3 51.456 35.82C51.521 35.17 51.554 34.52 51.554 33.86C51.554 28.71 49.568 23.8504 45.964 20.1804C45.604 19.8104 45.013 19.8003 44.647 20.1603C44.28 20.5203 44.273 21.1102 44.633 21.4802C47.895 24.8102 49.692 29.2 49.692 33.86Z" fill="#0E5BCA"/>
<path d="M13.471 36.6599C13.504 36.6599 13.535 36.6597 13.566 36.6497C14.079 36.5997 14.451 36.1397 14.399 35.6297C14.34 35.0497 14.311 34.4597 14.311 33.8597C14.311 29.0697 16.195 24.5898 19.616 21.2298C19.983 20.8698 19.99 20.2799 19.63 19.9099C19.27 19.5499 18.681 19.5397 18.312 19.8997C14.531 23.6097 12.449 28.5697 12.449 33.8597C12.449 34.5197 12.482 35.1796 12.547 35.8196C12.595 36.2996 13 36.6599 13.471 36.6599Z" fill="#0E5BCA"/>
<path d="M32 31.0698C31.486 31.0698 31.069 31.48 31.069 32V35.2598L23.9939 40.5601C23.5829 40.8701 23.499 41.4601 23.806 41.8701C23.99 42.1101 24.27 42.2402 24.552 42.2402C24.746 42.2402 24.9429 42.1801 25.1099 42.0601L32 36.8901L38.8909 42.0601C39.0579 42.1801 39.254 42.2402 39.449 42.2402C39.731 42.2402 40.011 42.1101 40.194 41.8701C40.502 41.4601 40.4179 40.8701 40.0069 40.5601L32.931 35.2598V32C32.931 31.48 32.515 31.0698 32 31.0698Z" fill="#0E5BCA"/>
</svg>
