<svg width="127" height="47" viewBox="0 0 127 47" fill="none" xmlns="http://www.w3.org/2000/svg">
<g clip-path="url(#clip0_66_219)">
<path d="M51.8021 23.9259H56.5192V26.7056H48.2012V11.9227H51.8021V23.9259ZM63.7962 26.874C62.6451 26.874 61.6062 26.6283 60.6795 26.1371C59.767 25.6457 59.044 24.9437 58.5106 24.0312C57.9911 23.1187 57.7313 22.0517 57.7313 20.8304C57.7313 19.623 57.9982 18.563 58.5316 17.6505C59.0651 16.724 59.7951 16.015 60.7217 15.5236C61.6482 15.0323 62.6871 14.7866 63.8383 14.7866C64.9895 14.7866 66.0284 15.0323 66.9549 15.5236C67.8815 16.015 68.6116 16.724 69.145 17.6505C69.6785 18.563 69.9452 19.623 69.9452 20.8304C69.9452 22.0377 69.6715 23.1047 69.124 24.0312C68.5905 24.9437 67.8535 25.6457 66.9128 26.1371C65.9862 26.6283 64.9474 26.874 63.7962 26.874ZM63.7962 23.7574C64.4841 23.7574 65.0668 23.5047 65.544 22.9993C66.0354 22.494 66.2811 21.771 66.2811 20.8304C66.2811 19.8898 66.0425 19.1667 65.5651 18.6613C65.1019 18.156 64.5263 17.9032 63.8383 17.9032C63.1363 17.9032 62.5538 18.156 62.0905 18.6613C61.6272 19.1527 61.3956 19.8757 61.3956 20.8304C61.3956 21.771 61.6201 22.494 62.0693 22.9993C62.5327 23.5047 63.1083 23.7574 63.7962 23.7574ZM76.5306 14.7866C77.3588 14.7866 78.0819 14.955 78.6996 15.292C79.3313 15.6289 79.8156 16.0711 80.1526 16.6186V14.955H83.7536V26.6846C83.7536 27.7656 83.536 28.7413 83.1008 29.6116C82.6796 30.4961 82.0269 31.1981 81.1424 31.7175C80.2719 32.237 79.1839 32.4967 77.8783 32.4967C76.1375 32.4967 74.7266 32.0826 73.6456 31.2542C72.5645 30.44 71.9469 29.3308 71.7925 27.927H75.3514C75.4636 28.3763 75.7303 28.7272 76.1515 28.9799C76.5726 29.2466 77.0921 29.3801 77.7099 29.3801C78.4539 29.3801 79.0435 29.1624 79.4787 28.7272C79.928 28.306 80.1526 27.6252 80.1526 26.6846V25.0209C79.8016 25.5684 79.3173 26.0178 78.6996 26.3687C78.0819 26.7056 77.3588 26.874 76.5306 26.874C75.5619 26.874 74.6844 26.6283 73.8982 26.1371C73.1121 25.6316 72.4874 24.9227 72.0241 24.0102C71.5748 23.0836 71.3502 22.0166 71.3502 20.8093C71.3502 19.6019 71.5748 18.542 72.0241 17.6295C72.4874 16.7169 73.1121 16.015 73.8982 15.5236C74.6844 15.0323 75.5619 14.7866 76.5306 14.7866ZM80.1526 20.8304C80.1526 19.9318 79.8999 19.2228 79.3945 18.7035C78.9031 18.184 78.2994 17.9243 77.5835 17.9243C76.8676 17.9243 76.2569 18.184 75.7514 18.7035C75.2601 19.2089 75.0144 19.9108 75.0144 20.8093C75.0144 21.7078 75.2601 22.4238 75.7514 22.9572C76.2569 23.4766 76.8676 23.7364 77.5835 23.7364C78.2994 23.7364 78.9031 23.4766 79.3945 22.9572C79.8999 22.4379 80.1526 21.7288 80.1526 20.8304ZM88.3804 13.7336C87.7485 13.7336 87.2291 13.5511 86.822 13.1861C86.4289 12.8071 86.2323 12.3438 86.2323 11.7963C86.2323 11.2348 86.4289 10.7715 86.822 10.4065C87.2291 10.0274 87.7485 9.83789 88.3804 9.83789C88.998 9.83789 89.5035 10.0274 89.8966 10.4065C90.3036 10.7715 90.5072 11.2348 90.5072 11.7963C90.5072 12.3438 90.3036 12.8071 89.8966 13.1861C89.5035 13.5511 88.998 13.7336 88.3804 13.7336ZM90.1703 14.955V26.7056H86.5693V14.955H90.1703ZM96.5915 11.1225V26.7056H92.9904V11.1225H96.5915ZM98.6956 20.8093C98.6956 19.6019 98.9203 18.542 99.3695 17.6295C99.8328 16.7169 100.457 16.015 101.244 15.5236C102.03 15.0323 102.907 14.7866 103.876 14.7866C104.704 14.7866 105.427 14.955 106.045 15.292C106.677 15.6289 107.161 16.0711 107.498 16.6186V14.955H111.099V26.7056H107.498V25.042C107.147 25.5896 106.656 26.0317 106.024 26.3687C105.406 26.7056 104.683 26.874 103.855 26.874C102.9 26.874 102.03 26.6283 101.244 26.1371C100.457 25.6316 99.8328 24.9227 99.3695 24.0102C98.9203 23.0836 98.6956 22.0166 98.6956 20.8093ZM107.498 20.8304C107.498 19.9318 107.245 19.2228 106.74 18.7035C106.248 18.184 105.645 17.9243 104.929 17.9243C104.213 17.9243 103.602 18.184 103.097 18.7035C102.605 19.2089 102.36 19.9108 102.36 20.8093C102.36 21.7078 102.605 22.4238 103.097 22.9572C103.602 23.4766 104.213 23.7364 104.929 23.7364C105.645 23.7364 106.248 23.4766 106.74 22.9572C107.245 22.4379 107.498 21.7288 107.498 20.8304ZM117.516 16.6186C117.853 16.0711 118.337 15.6289 118.969 15.292C119.6 14.955 120.323 14.7866 121.138 14.7866C122.106 14.7866 122.984 15.0323 123.77 15.5236C124.556 16.015 125.174 16.7169 125.623 17.6295C126.086 18.542 126.318 19.6019 126.318 20.8093C126.318 22.0166 126.086 23.0836 125.623 24.0102C125.174 24.9227 124.556 25.6316 123.77 26.1371C122.984 26.6283 122.106 26.874 121.138 26.874C120.309 26.874 119.586 26.7127 118.969 26.3897C118.351 26.0528 117.867 25.6106 117.516 25.0631V26.7056H113.915V11.1225H117.516V16.6186ZM122.654 20.8093C122.654 19.9108 122.401 19.2089 121.896 18.7035C121.404 18.184 120.794 17.9243 120.064 17.9243C119.348 17.9243 118.737 18.184 118.232 18.7035C117.74 19.2228 117.495 19.9318 117.495 20.8304C117.495 21.7288 117.74 22.4379 118.232 22.9572C118.737 23.4766 119.348 23.7364 120.064 23.7364C120.78 23.7364 121.39 23.4766 121.896 22.9572C122.401 22.4238 122.654 21.7078 122.654 20.8093Z" fill="#253858"/>
<path d="M46.883 32.4139V33.8229H48.775V34.7165H46.883V36.2059H49.0166V37.1237H45.7559V31.4961H49.0166V32.4139H46.883ZM53.7445 36.2301H55.5963V37.1237H52.6173V31.504H53.7445V36.2301ZM63.6956 37.1237H62.5684L60.0162 33.2673V37.1237H58.8891V31.4961H60.0162L62.5684 35.3606V31.4961H63.6956V37.1237Z" fill="#253858"/>
<path d="M110.412 34.8827H111.914V35.608H109.497V31.0476H110.412V34.8827ZM114.848 31.0476V35.608H113.933V31.0476H114.848ZM120.292 31.0476V31.7858H119.077V35.608H118.162V31.7858H116.947V31.0476H120.292ZM123.312 31.7858V32.9292H124.847V33.6544H123.312V34.8631H125.043V35.608H122.397V31.041H125.043V31.7858H123.312Z" fill="#253858"/>
<path d="M13.9808 9.1875C13.2466 13.1942 12.2142 17.3523 10.1019 20.838C9.69465 21.5105 9.17842 22.344 8.53906 22.9692C9.52888 22.9549 10.5235 22.9455 11.5133 22.9313C11.769 22.1357 11.9727 21.3353 12.1621 20.6012C13.114 16.8693 13.6444 13.0331 13.9808 9.1875Z" fill="#1368E4"/>
<path d="M13.1863 19.2259C12.9257 20.4242 12.6369 21.6934 12.239 22.92C12.2012 23.0336 12.1633 23.1473 12.1254 23.261C12.0875 23.3746 12.0449 23.4884 12.007 23.6021C11.6044 24.7008 11.0929 25.7473 10.4062 26.652C10.2736 26.8225 10.1173 27.0214 9.93262 27.206C10.6241 27.2581 11.3203 27.3056 12.0164 27.3577C12.4853 26.1358 12.8405 24.8617 13.1247 23.5878C13.1484 23.4742 13.172 23.3605 13.1957 23.2469C13.2194 23.1331 13.243 23.0194 13.2667 22.9106C13.3661 22.4227 13.4657 21.935 13.5509 21.4471C13.7356 20.429 13.8967 19.4012 14.034 18.3735V14.4805C13.8067 16.0718 13.5319 17.6584 13.1863 19.2259Z" fill="#1469E5"/>
<path d="M14.0365 8.54102C14.0175 8.75887 14.0033 8.97198 13.9844 9.1851C14.0033 9.08564 14.0223 8.99093 14.0365 8.89147V8.54102Z" fill="#FCFCFC"/>
<path d="M14.0367 29.7355V28.1822V27.8458V27.5002V23.5692V23.2283V22.8921V22.5605C14.0177 22.6742 13.9941 22.7831 13.9704 22.8921C13.9467 23.0057 13.9231 23.1194 13.8994 23.2331C13.8756 23.3467 13.8473 23.4604 13.8235 23.574C13.53 24.8764 13.17 26.1598 12.7059 27.4054C12.6633 27.5191 12.6254 27.628 12.5828 27.7417C12.5401 27.8506 12.4975 27.9595 12.4549 28.0637C12.3081 28.4189 12.1565 28.7693 11.9955 29.1104C11.7208 29.6882 11.394 30.3749 10.9678 30.9243C12.0855 30.9764 13.2031 31.0284 14.3208 31.0805C14.1314 30.6732 14.0367 30.2281 14.0367 29.7355Z" fill="#1368E4"/>
<path d="M14.7003 31.7187C14.5441 31.5197 14.4162 31.3114 14.3167 31.0887C13.199 31.0367 12.0813 30.9846 10.9636 30.9325C11.3946 30.3831 11.7166 29.6964 11.9913 29.1186C12.1571 28.7776 12.3087 28.4271 12.4507 28.0719C12.4933 27.963 12.536 27.854 12.5786 27.7498C12.6212 27.6362 12.6591 27.5273 12.7017 27.4136C13.1658 26.1728 13.5258 24.8846 13.8194 23.5822C13.8431 23.4686 13.8716 23.3549 13.8952 23.2413C13.9189 23.1276 13.9425 23.0139 13.9662 22.9003C13.9899 22.7913 14.0089 22.6776 14.0325 22.5687V18.9883V18.3774C13.8952 19.4051 13.7389 20.4281 13.5495 21.451C13.4595 21.9341 13.3648 22.4266 13.2653 22.9145C13.2416 23.0282 13.2179 23.1418 13.1943 23.2507C13.1706 23.3644 13.1469 23.478 13.1233 23.5917C12.8343 24.8704 12.4792 26.1396 12.015 27.3615C11.3188 27.3094 10.6274 27.2621 9.93118 27.21C10.1111 27.0253 10.2722 26.8263 10.4048 26.6559C11.0915 25.7513 11.603 24.7046 12.0055 23.6059C12.0482 23.4922 12.0861 23.3786 12.1239 23.2649C12.1618 23.1513 12.1997 23.0376 12.2376 22.9239C12.6354 21.6972 12.9243 20.4233 13.1848 19.2299C13.5306 17.6622 13.8052 16.0758 14.0325 14.4844V11.1929V9.64425V8.9007C14.0135 9.00015 13.9947 9.09961 13.9804 9.19432C13.6395 13.04 13.1137 16.876 12.1666 20.6033C11.9771 21.342 11.7735 22.1424 11.5177 22.9334C10.5279 22.9428 9.53337 22.957 8.54355 22.9713C9.17817 22.3509 9.69914 21.5174 10.1064 20.8401C12.2187 17.3544 13.2512 13.1962 13.9852 9.18958C14.0041 8.97173 14.0231 8.75862 14.0373 8.5455V7.63619V7.45149V6.78846V6.70793C14.0373 6.66531 14.0278 6.62269 14.0231 6.58008C14.0041 6.2675 13.9568 5.96438 13.8952 5.66602C13.3079 10.0042 12.3892 14.3518 10.6369 18.3206C10.3006 19.083 9.93593 19.8266 9.51443 20.5418C9.29657 20.9111 9.05977 21.2568 8.80876 21.6026C8.57196 21.9341 8.29254 22.2182 8.01312 22.5072C7.86156 22.6634 7.69581 22.7771 7.51111 22.8907C7.43059 22.9428 7.35009 22.9949 7.29326 23.0755C7.25063 23.1323 7.16538 23.2601 7.17011 23.3312C7.18432 23.5396 7.39271 23.6486 7.57267 23.6628C7.86631 23.6864 8.15993 23.639 8.45357 23.639C9.05503 23.639 9.6565 23.6201 10.2627 23.6201C10.6037 23.6201 10.9447 23.6107 11.2857 23.6107C10.8689 24.7426 10.3195 25.8223 9.5381 26.6369C9.43391 26.7459 9.32498 26.8596 9.19711 26.9448C9.0124 27.0727 8.74247 27.1011 8.59565 27.281C8.4441 27.4705 8.58143 27.7404 8.79455 27.8161C9.05504 27.9156 9.3534 27.873 9.62808 27.8777C9.9312 27.8825 10.2343 27.9015 10.5374 27.9252C10.741 27.9394 10.9447 27.9535 11.1483 27.9725C11.2052 27.9773 11.7356 28.0435 11.7498 28.0151C11.5178 28.5644 11.262 29.1044 10.9731 29.6206C10.8121 29.9048 10.6511 30.1889 10.4663 30.4589C10.3764 30.5915 10.2722 30.7146 10.1538 30.8235C10.0496 30.9183 9.91225 31.0129 9.86962 31.155C9.83174 31.2877 9.92645 31.4487 10.0449 31.515C10.2722 31.6381 10.5469 31.5954 10.7931 31.605C11.1057 31.6144 11.4183 31.6333 11.7261 31.6475C12.3749 31.6808 13.0238 31.7092 13.6726 31.7423C13.8573 31.7518 14.042 31.7612 14.2268 31.766C14.3167 31.7708 14.4067 31.7754 14.4966 31.7802C14.5345 31.7802 14.7382 31.766 14.7572 31.7897C14.7382 31.7612 14.7193 31.7423 14.7003 31.7187Z" fill="white"/>
<path d="M30.9974 7.15632C30.9974 7.72937 30.5333 8.19349 29.9602 8.19349H18.1534C17.5803 8.19349 17.1162 7.72937 17.1162 7.15632C17.1162 6.58326 17.5803 6.11914 18.1534 6.11914H29.9602C30.5285 6.11914 30.9974 6.58326 30.9974 7.15632Z" fill="#2883FE"/>
<path d="M30.9974 12.5626C30.9974 13.1356 30.5333 13.5998 29.9602 13.5998H18.1534C17.5803 13.5998 17.1162 13.1356 17.1162 12.5626C17.1162 11.9895 17.5803 11.5254 18.1534 11.5254H29.9602C30.5285 11.5207 30.9974 11.9895 30.9974 12.5626Z" fill="#2883FE"/>
<path d="M30.9974 23.3731C30.9974 23.9462 30.5333 24.4104 29.9602 24.4104H18.1534C17.5803 24.4104 17.1162 23.9462 17.1162 23.3731C17.1162 22.8001 17.5803 22.3359 18.1534 22.3359H29.9602C30.5285 22.3359 30.9974 22.8001 30.9974 23.3731Z" fill="#2883FE"/>
<path d="M30.9974 28.7793C30.9974 29.3524 30.5333 29.8166 29.9602 29.8166H18.1534C17.5803 29.8166 17.1162 29.3524 17.1162 28.7793C17.1162 28.2064 17.5803 27.7422 18.1534 27.7422H29.9602C30.5285 27.7422 30.9974 28.2064 30.9974 28.7793Z" fill="#2883FE"/>
<path d="M27.5295 17.9668C27.5295 18.5399 27.0653 19.004 26.4922 19.004H18.1475C17.5744 19.004 17.1104 18.5399 17.1104 17.9668C17.1104 17.3938 17.5744 16.9297 18.1475 16.9297H26.4922C27.0653 16.9297 27.5295 17.3938 27.5295 17.9668Z" fill="#2883FE"/>
<path d="M31.1959 33.0381H30.5613H27.5207H24.7028H24.6176H24.1724H22.5906H22.2354H18.6408H17.4047C16.4765 33.0381 15.6808 32.7208 15.0225 32.0862C14.961 32.0246 14.8994 31.9631 14.8425 31.8968C14.8094 31.8589 14.781 31.821 14.7525 31.7879C13.2371 31.7168 11.7215 31.6458 10.206 31.5748C10.135 31.57 10.0687 31.5416 10.0119 31.499C9.99291 31.4848 9.97397 31.4706 9.95976 31.4516C9.84135 31.3237 9.794 31.1296 9.95976 30.9969C10.4144 30.6275 10.6702 30.154 10.9685 29.6236C11.2622 29.1073 11.5132 28.5674 11.7452 28.018C10.7744 27.947 9.80348 27.8759 8.83261 27.8049C8.40164 27.7765 8.38268 27.1419 8.82313 27.1277C8.67632 27.1324 8.99837 27.0567 8.92259 27.0945C9.21622 26.9524 9.30621 26.8672 9.52406 26.6399C10.3055 25.8253 10.8549 24.7503 11.2716 23.6136C10.0119 23.6278 8.75683 23.6467 7.49705 23.6609C7.17501 23.6657 7.00451 23.1874 7.31709 23.0311C7.37392 23.0026 7.42601 22.9695 7.47337 22.9363C8.86101 21.9843 9.91715 19.9337 10.6228 18.3283C12.3751 14.3594 13.2986 10.0119 13.8811 5.6737C13.8527 5.54583 13.8196 5.41795 13.7865 5.29482H13.7911C13.0998 2.2638 10.3907 0 7.1466 0C6.20888 0 5.31376 0.194175 4.49917 0.539901C4.45655 0.554109 4.41394 0.573053 4.37132 0.591997C4.33816 0.606205 4.30027 0.620416 4.26712 0.63936C1.84704 1.67181 0.127871 4.02559 0.0142074 6.79612H0V7.08976V7.64388V32.8298C0 33.7106 0.0757762 34.5679 0.222591 35.392C0.705661 38.1293 1.98437 40.5399 4.07294 42.6238C6.78666 45.3375 10.0497 46.6967 13.8669 46.6967H14.7952H30.1729H30.8975C30.9069 46.6967 30.9212 46.6919 30.9307 46.6919H31.1721C34.9373 46.6919 37.992 43.6373 37.992 39.8722C38.0157 36.0881 34.961 33.0381 31.1959 33.0381Z" fill="#2883FE"/>
<path opacity="0.7" d="M31.1967 33.0274H30.5621H27.5216H24.7037H24.6184H24.1732H22.5914H22.2362H18.6416H17.4056C16.4773 33.0274 15.6817 32.7101 15.0234 32.0755C14.9571 32.0139 14.9002 31.9524 14.8434 31.886C14.8102 31.8481 14.7819 31.8102 14.7534 31.7771C13.2379 31.7062 11.7224 31.635 10.2069 31.5641C10.1358 31.5593 10.0695 31.5308 10.0127 31.4883L16.8988 46.6718H30.1974H30.9221C30.9315 46.6718 30.9457 46.6718 30.9552 46.6671H31.1967C34.9618 46.6671 38.0166 43.6123 38.0166 39.8472C38.0166 36.0822 34.9618 33.0274 31.1967 33.0274Z" fill="url(#paint0_linear_66_219)"/>
</g>
<defs>
<linearGradient id="paint0_linear_66_219" x1="10.0156" y1="39.0805" x2="38.0175" y2="39.0805" gradientUnits="userSpaceOnUse">
<stop stop-color="#095CD8"/>
<stop offset="0.7672" stop-color="#207AF5"/>
</linearGradient>
<clipPath id="clip0_66_219">
<rect width="127" height="46.6967" fill="white"/>
</clipPath>
</defs>
</svg>
